<svg width="24" height="24" viewBox="0 0 24 24" fill="none" xmlns="http://www.w3.org/2000/svg">
<path d="M16 3.25C17.3929 3.25 18.5131 3.24812 19.3916 3.36621C20.2917 3.48723 21.0495 3.74672 21.6514 4.34863C22.2533 4.95055 22.5128 5.70829 22.6338 6.6084C22.6826 6.97136 22.7102 7.37559 22.7266 7.82324C22.7404 7.8801 22.75 7.93891 22.75 8C22.75 8.04677 22.7445 8.09232 22.7363 8.13672C22.75 8.69414 22.75 9.31399 22.75 10V14C22.75 15.3929 22.7519 16.5131 22.6338 17.3916C22.5128 18.2917 22.2533 19.0495 21.6514 19.6514C21.0495 20.2533 20.2917 20.5128 19.3916 20.6338C18.5131 20.7519 17.3929 20.75 16 20.75H8.00001C6.6071 20.75 5.48692 20.7519 4.60841 20.6338C3.7083 20.5128 2.95056 20.2533 2.34865 19.6514C1.74673 19.0495 1.48724 18.2917 1.36623 17.3916C1.24813 16.5131 1.25001 15.3929 1.25001 14V10C1.25001 9.314 1.24907 8.69413 1.26271 8.13672C1.25454 8.09238 1.25001 8.04671 1.25001 8C1.25001 7.93899 1.25873 7.88003 1.27248 7.82324C1.2889 7.37558 1.31743 6.97137 1.36623 6.6084C1.48724 5.70829 1.74673 4.95055 2.34865 4.34863C2.95056 3.74672 3.7083 3.48723 4.60841 3.36621C5.48692 3.24812 6.6071 3.25 8.00001 3.25H16ZM2.75587 8.75C2.75227 9.12637 2.75001 9.54096 2.75001 10V14C2.75001 15.4352 2.75203 16.4361 2.85353 17.1914C2.95218 17.9252 3.13243 18.3141 3.40919 18.5908C3.68596 18.8676 4.07483 19.0478 4.80861 19.1465C5.56391 19.248 6.56486 19.25 8.00001 19.25H16C17.4352 19.25 18.4361 19.248 19.1914 19.1465C19.9252 19.0478 20.3141 18.8676 20.5908 18.5908C20.8676 18.3141 21.0478 17.9252 21.1465 17.1914C21.248 16.4361 21.25 15.4352 21.25 14V10C21.25 9.54096 21.2478 9.12637 21.2442 8.75H2.75587ZM10 11.25C10.4142 11.25 10.75 11.5858 10.75 12C10.75 12.4142 10.4142 12.75 10 12.75H6.00001C5.5858 12.75 5.25001 12.4142 5.25001 12C5.25001 11.5858 5.5858 11.25 6.00001 11.25H10ZM8.00001 4.75C6.56486 4.75 5.56391 4.75202 4.80861 4.85352C4.07483 4.95217 3.68596 5.13242 3.40919 5.40918C3.13243 5.68594 2.95218 6.07482 2.85353 6.8086C2.83492 6.94705 2.82113 7.09388 2.80861 7.25H21.1914C21.1789 7.09388 21.1651 6.94705 21.1465 6.8086C21.0478 6.07482 20.8676 5.68594 20.5908 5.40918C20.3141 5.13242 19.9252 4.95217 19.1914 4.85352C18.4361 4.75202 17.4352 4.75 16 4.75H8.00001Z" fill="#FDFCFD"/>
</svg>
