<svg width="24" height="24" viewBox="0 0 24 24" fill="none" xmlns="http://www.w3.org/2000/svg">
<path d="M16.4697 12.4697C16.7626 12.1768 17.2373 12.1768 17.5302 12.4697L21.5302 16.4697C21.8231 16.7626 21.8231 17.2373 21.5302 17.5302L17.5302 21.5302C17.2373 21.8231 16.7626 21.8231 16.4697 21.5302C16.1768 21.2373 16.1768 20.7626 16.4697 20.4697L19.1894 17.7499H6.99994C6.58573 17.7499 6.24994 17.4142 6.24994 16.9999C6.24994 16.5857 6.58573 16.2499 6.99994 16.2499H19.1894L16.4697 13.5302C16.1768 13.2373 16.1768 12.7626 16.4697 12.4697ZM6.46967 2.46967C6.76256 2.17678 7.23732 2.17678 7.53022 2.46967C7.82311 2.76256 7.82311 3.23732 7.53022 3.53022L4.81049 6.24994H16.9999C17.4142 6.24994 17.7499 6.58573 17.7499 6.99994C17.7499 7.41416 17.4142 7.74994 16.9999 7.74994H4.81049L7.53022 10.4697C7.82311 10.7626 7.82311 11.2373 7.53022 11.5302C7.23732 11.8231 6.76256 11.8231 6.46967 11.5302L2.46967 7.53022C2.17678 7.23732 2.17678 6.76256 2.46967 6.46967L6.46967 2.46967Z" fill="#FDFCFD"/>
</svg>
